<svg id="Layer_1" enable-background="new 0 0 50 50" viewBox="0 0 50 50" xmlns="http://www.w3.org/2000/svg"><g><path d="m464.017 86v368h-320v-448h240z" fill="#fff"/><path d="m384.017 86h80v16h-80z" fill="#dce1e7"/><path d="m144.017 438h320v16h-320z" fill="#dce1e7"/><path d="m464.017 86h-80v-80" fill="#95a4b6"/><g><path d="m200.017 214h48v80h-48z" fill="#fff"/><path d="m232.017 214h16v80h-16z" fill="#dce1e7"/><path d="m360.017 182h48v112h-48z" fill="#95a4b6"/><path d="m392.017 182h16v112h-16z" fill="#72869e"/><path d="m280.017 150h48v144h-48z" fill="#b9c2cf"/><path d="m312.017 150h16v144h-16z" fill="#95a4b6"/></g><g><path d="m144.042 362.059c13.255 0 25.255 5.372 33.941 14.059l33.941-33.941c-17.373-17.372-41.373-28.118-67.882-28.118-53.019 0-96 42.981-96 96h48c-.001-26.51 21.49-48 48-48z" fill="#95a4b6"/><path d="m240.042 410.059c0-26.51-10.745-50.51-28.118-67.882l-33.941 33.941c8.686 8.686 14.059 20.686 14.059 33.941 0 26.51-21.49 48-48 48v48c53.019 0 96-42.981 96-96z" fill="#b9c2cf"/><path d="m96.041 410.059h-48c0 53.019 42.981 96 96 96v-48c-26.509 0-48-21.49-48-48z" fill="#fff"/><path d="m48.376 402.059c-.218 2.638-.334 5.305-.334 8 0 53.011 42.968 95.987 95.976 96v-16c-50.314-.013-91.577-38.733-95.642-88z" fill="#dce1e7"/><path d="m239.707 402.059c-4.066 49.275-45.341 88-95.666 88-.008 0-.016-.001-.024-.001v16h.024c53.019 0 96-42.981 96-96 .001-2.694-.116-5.361-.334-7.999z" fill="#95a4b6"/></g><g fill="#012d4a"><path d="m470.018 83.515-83.515-83.515h-248.485v308.241c-53.45 3.129-95.977 47.597-95.977 101.817 0 56.243 45.757 102 102 102 38.111 0 71.401-21.013 88.909-52.059h237.068zm-80-63.03 59.514 59.515h-59.515v-59.515zm-245.977 299.574c22.658 0 43.385 8.42 59.224 22.291l-25.524 25.524c-21.18-16.946-52.263-15.619-71.883 4.001-9.002 9.002-14.142 20.418-15.446 32.184h-36.166c3.099-46.839 42.186-84 89.795-84zm-6.023 131.549c-8.668-1.246-17.019-5.196-23.674-11.851-16.376-16.376-16.376-43.021-.001-59.397 6.655-6.655 15.006-10.605 23.675-11.851zm12 .006v-83.111c8.686 1.238 17.055 5.19 23.723 11.857 16.375 16.375 16.375 43.021 0 59.397-6.668 6.667-15.038 10.619-23.723 11.857zm-95.772-35.555h36.167c1.304 11.765 6.444 23.182 15.446 32.184 9.001 9.002 20.418 14.142 32.183 15.446v36.165c-44.856-2.967-80.829-38.941-83.796-83.795zm95.795 83.795v-36.165c11.766-1.304 23.182-6.444 32.184-15.446h.001c19.619-19.621 20.947-50.702 4-71.884l25.524-25.524c13.871 15.839 22.291 36.565 22.291 59.224 0 47.609-37.161 86.696-84 89.795zm88.677-51.854c4.719-11.734 7.323-24.539 7.323-37.941 0-54.237-42.552-98.715-96.023-101.82v-296.239h228v80h80v356z"/><path d="m192.018 64h160v12h-160z"/><path d="m192.018 96h128v12h-128z"/><path d="m414.018 176h-60v112h-20v-144h-60v144h-20v-80h-60v92h220zm-172 112h-36v-68h36zm44-132h36v132h-36zm116 132h-36v-100h36z"/><path d="m256.018 336h160v12h-160z"/><path d="m288.018 368h128v12h-128z"/></g></g></svg>